<?xml version="1.0" standalone="no"?>
<!DOCTYPE svg PUBLIC "-//W3C//DTD SVG 20010904//EN"
 "http://www.w3.org/TR/2001/REC-SVG-20010904/DTD/svg10.dtd">
<svg version="1.0" xmlns="http://www.w3.org/2000/svg"
 width="1280.000000pt" height="864.000000pt" viewBox="0 0 1280.000000 864.000000"
 preserveAspectRatio="xMidYMid meet">
<g transform="translate(0.000000,864.000000) scale(0.100000,-0.100000)"
fill="#ffffff" stroke="none">
<path d="M10462 8628 c-18 -18 -15 -45 8 -68 23 -23 27 -96 9 -149 -9 -26 -16
-31 -42 -31 -18 0 -56 11 -85 25 -94 44 -95 43 -89 -82 5 -114 25 -196 56
-234 l18 -23 21 46 c13 30 31 52 50 62 18 9 32 25 34 38 3 23 3 23 208 24 210
1 327 12 640 60 371 56 453 66 621 71 126 4 178 3 183 -6 4 -7 38 -11 87 -11
90 0 98 -8 49 -55 -24 -23 -30 -37 -28 -60 3 -25 8 -30 33 -33 23 -2 37 4 60
28 16 16 32 30 37 30 4 0 29 -13 56 -30 30 -18 56 -27 69 -24 26 7 84 -42 119
-101 49 -85 66 -254 38 -392 -8 -39 -20 -44 -73 -32 -72 16 -171 28 -381 44
-239 19 -369 37 -460 66 -123 39 -238 115 -213 140 5 5 37 21 69 34 42 17 60
30 62 44 5 32 -41 27 -123 -12 -39 -18 -92 -39 -120 -46 -160 -41 -334 -113
-474 -194 -60 -36 -65 -37 -161 -37 -86 0 -101 2 -109 18 -17 32 -163 53 -248
36 -16 -3 -64 -37 -109 -76 -46 -41 -105 -82 -141 -99 -34 -15 -95 -50 -135
-77 -96 -65 -142 -87 -206 -101 -93 -20 -111 -16 -128 26 -44 105 -121 153
-260 162 -107 7 -114 11 -139 91 -23 71 -67 159 -99 197 -14 16 -45 40 -69 53
l-45 24 -68 -19 c-70 -19 -290 -125 -420 -203 -87 -52 -88 -56 -89 -262 -1
-80 -5 -158 -9 -173 -5 -16 -33 -52 -63 -82 -64 -65 -103 -142 -103 -206 0
-43 3 -48 57 -95 l57 -49 116 -5 c137 -6 156 -16 201 -104 105 -203 203 -293
333 -305 l61 -6 -2 -70 c-2 -105 15 -287 37 -385 36 -160 117 -359 191 -467
36 -52 36 -59 -1 -78 -46 -24 -61 -64 -60 -158 1 -45 1 -87 1 -94 -1 -15 -82
-40 -160 -49 l-58 -6 -22 36 c-35 55 -36 99 -7 241 41 203 34 288 -27 342 -21
17 -26 33 -31 90 -10 114 -18 136 -49 147 -23 8 -31 6 -49 -12 -21 -20 -21
-25 -12 -114 l10 -93 -27 -32 c-16 -18 -51 -75 -78 -126 -59 -109 -107 -168
-155 -191 -44 -21 -65 -20 -73 2 -3 9 -12 24 -19 32 -7 9 -17 45 -21 80 -6 52
-12 65 -27 68 -18 4 -19 -1 -13 -97 l6 -100 -37 -31 c-46 -38 -145 -69 -242
-76 -80 -6 -216 14 -267 38 -26 12 -28 18 -31 75 -3 56 0 64 26 95 16 18 39
53 52 78 33 66 118 148 269 265 75 57 164 132 198 167 71 73 158 122 174 98
11 -16 4 -123 -12 -182 -11 -44 2 -78 30 -78 51 0 62 63 68 378 2 149 1 272
-4 272 -13 0 -239 -96 -275 -117 -46 -27 -95 -95 -103 -142 -6 -34 -18 -50
-77 -101 -39 -34 -114 -94 -168 -135 -54 -41 -126 -100 -159 -131 -67 -62
-152 -182 -171 -241 -8 -23 -33 -57 -62 -84 -37 -35 -49 -53 -46 -70 4 -33 52
-39 68 -10 6 12 20 21 31 21 18 0 19 -5 13 -67 -4 -47 -12 -73 -24 -83 -10 -8
-21 -24 -24 -36 -7 -24 -93 -68 -122 -62 -10 2 -31 22 -47 46 -15 23 -31 42
-35 42 -4 0 -17 -15 -30 -34 -27 -40 -97 -80 -178 -101 -77 -20 -302 -21 -449
-1 -60 8 -152 20 -203 27 -83 11 -93 11 -105 -4 -11 -15 -39 -15 -397 13
-1549 119 -2271 157 -3150 167 -762 8 -1338 -12 -1945 -67 -332 -30 -533 -56
-550 -70 -21 -17 -19 -53 4 -74 18 -16 31 -16 242 8 659 74 1176 99 1989 99
567 0 866 -7 1395 -33 188 -9 274 -14 693 -40 194 -12 1011 -71 1446 -104 285
-21 300 -23 314 -44 13 -20 23 -22 98 -22 46 0 84 -1 84 -2 0 -2 -10 -28 -21
-58 -17 -42 -22 -78 -23 -152 -1 -94 0 -97 29 -128 51 -53 124 -82 215 -85 43
-2 83 -6 89 -9 10 -7 7 -235 -7 -471 -7 -107 -12 -139 -32 -180 -21 -42 -24
-64 -24 -145 0 -52 0 -117 0 -145 0 -27 0 -95 0 -150 0 -78 5 -117 24 -175 19
-62 23 -99 25 -210 1 -147 -1 -137 89 -355 39 -93 46 -120 46 -177 0 -42 -5
-70 -12 -74 -7 -5 -67 -7 -133 -5 -172 4 -252 -10 -665 -118 -225 -58 -354
-81 -461 -81 -83 0 -103 -11 -97 -52 3 -22 8 -23 93 -26 129 -5 213 10 543 94
311 79 443 104 557 104 89 0 185 -16 202 -33 16 -15 22 -15 323 34 210 34 388
76 499 119 42 17 80 30 85 30 4 0 22 -11 38 -25 17 -14 98 -59 182 -99 l151
-73 102 5 c126 5 248 -8 523 -59 143 -27 248 -41 315 -42 103 -2 185 14 206
39 7 9 10 46 7 106 -6 117 -26 165 -126 301 -78 106 -122 190 -122 232 0 24 3
25 56 25 31 0 95 -6 143 -14 47 -8 145 -19 217 -25 142 -11 236 -38 254 -71
17 -31 11 -171 -9 -251 -40 -152 -168 -369 -218 -369 -34 0 -91 -28 -104 -52
-11 -21 -4 -38 15 -38 34 0 60 -37 66 -91 l5 -54 105 -6 c115 -7 351 -42 444
-65 62 -16 156 -59 168 -77 7 -11 0 -68 -12 -102 -4 -12 -28 -28 -60 -40 -89
-34 -113 -93 -54 -132 23 -15 29 -15 83 2 57 17 60 17 112 -3 30 -11 70 -28
89 -38 19 -10 62 -20 96 -22 57 -4 62 -2 83 24 35 44 4 104 -54 104 -43 0 -59
21 -51 65 4 19 10 37 15 39 4 3 49 10 100 16 68 9 109 9 159 0 75 -12 107 -5
141 31 23 25 28 86 11 120 -26 49 -169 76 -310 59 -217 -27 -212 -27 -282 15
-95 56 -213 91 -408 120 -96 14 -181 32 -188 39 -17 17 -2 57 42 111 26 31 46
44 82 53 64 17 201 85 290 145 85 57 178 135 385 320 228 204 392 313 558 368
59 20 66 25 100 82 62 104 152 218 327 416 184 209 271 324 332 441 52 98 101
239 109 313 5 46 23 94 86 221 208 423 275 613 298 843 7 62 16 113 20 113 5
0 9 17 9 38 0 22 11 55 27 82 23 39 27 61 34 165 9 142 -3 280 -31 343 -14 30
-20 67 -20 113 l0 69 53 41 c58 46 67 68 88 219 19 143 22 221 11 305 -6 44
-28 198 -47 343 -34 244 -36 268 -24 335 7 39 12 119 12 177 0 151 -34 257
-109 339 -19 22 -41 61 -49 87 -9 27 -43 101 -78 164 l-63 115 -66 -1 c-91 -3
-162 -25 -243 -79 l-69 -45 -116 0 c-134 0 -268 -15 -632 -69 -144 -22 -312
-45 -373 -51 -143 -16 -380 -19 -395 -4 -7 7 -6 23 5 53 32 93 11 216 -42 240
-29 13 -26 14 -41 -1z m-1378 -769 c35 -28 71 -91 101 -179 28 -84 27 -88 -43
-151 -104 -94 -253 -146 -442 -156 -146 -7 -144 -9 -145 131 0 159 -18 137
219 271 74 42 228 104 257 105 15 0 38 -9 53 -21z m2352 -10 c69 -73 212 -135
377 -163 48 -9 199 -25 335 -36 304 -25 412 -41 432 -65 6 -7 24 -102 41 -211
36 -235 50 -559 29 -682 -11 -68 -14 -74 -59 -112 l-48 -39 -99 19 c-122 23
-334 40 -519 40 -242 1 -572 28 -616 51 -9 5 -30 32 -47 61 -16 29 -42 64 -56
77 -22 21 -31 23 -54 15 -40 -14 -41 -53 -2 -115 l32 -49 -37 -42 c-21 -22
-59 -87 -85 -142 -45 -96 -52 -105 -149 -191 -56 -49 -124 -103 -150 -118
l-49 -28 -26 24 c-45 42 -30 120 30 158 107 66 189 248 141 313 -25 34 -42 14
-43 -50 -1 -71 -27 -127 -86 -184 -38 -38 -44 -40 -103 -40 -73 0 -80 6 -89
74 -9 72 -58 162 -136 251 -39 44 -94 112 -124 150 -66 86 -81 100 -179 165
-114 75 -130 126 -66 214 29 41 118 112 157 127 13 5 33 9 46 9 41 0 121 29
171 62 28 18 88 70 136 114 94 90 107 98 162 108 69 13 72 9 129 -162 50 -152
52 -161 53 -275 l1 -117 45 -46 c43 -45 45 -46 95 -41 65 7 108 28 160 81 22
22 54 49 71 59 l31 17 52 -54 c53 -56 118 -93 144 -83 30 12 16 35 -37 65 -29
16 -65 47 -79 68 -24 35 -26 48 -26 129 0 120 -30 205 -72 205 -36 0 -45 -27
-27 -84 10 -29 17 -75 17 -103 l0 -49 -69 -48 c-38 -26 -76 -58 -85 -71 -8
-13 -31 -29 -51 -35 -60 -20 -71 -1 -77 133 -5 101 -10 126 -57 263 -28 83
-51 160 -51 172 0 27 24 43 186 123 124 61 278 118 325 119 16 0 36 -12 55
-31z m-881 -190 c19 -18 -164 -182 -246 -219 -49 -22 -119 -27 -119 -8 0 48
172 224 233 239 36 8 117 1 132 -12z m-1040 -154 c43 -25 75 -67 75 -98 0 -8
-20 -37 -43 -63 -24 -27 -47 -61 -50 -75 -5 -20 -19 -32 -61 -49 -30 -12 -77
-41 -106 -66 -60 -51 -120 -72 -314 -109 -208 -41 -268 -55 -315 -76 -33 -14
-66 -19 -141 -19 -96 0 -98 0 -144 35 -25 20 -46 41 -46 48 1 29 44 105 83
145 l41 42 91 -6 c163 -11 372 25 500 86 90 43 178 112 232 182 l46 60 54 -5
c32 -3 72 -16 98 -32z m65 -488 c47 -63 91 -108 118 -124 l42 -25 0 -118 c0
-89 3 -120 14 -129 24 -20 31 6 36 139 l5 124 35 12 c19 7 57 16 85 21 37 6
52 14 61 31 6 12 14 25 17 28 9 9 126 -65 175 -110 38 -35 42 -43 36 -70 -7
-35 -54 -134 -83 -174 -61 -87 -87 -185 -73 -275 5 -31 6 -61 2 -66 -8 -15
-91 -43 -107 -37 -7 3 -13 12 -13 20 0 9 -10 20 -21 27 -19 10 -21 17 -16 63
3 28 8 58 12 67 7 20 -21 51 -43 47 -8 -2 -24 -16 -36 -31 -18 -24 -21 -41
-19 -111 1 -81 1 -82 -28 -99 -43 -24 -58 -71 -69 -214 -12 -147 -17 -177 -37
-216 -27 -54 -125 -90 -140 -51 -3 9 2 61 11 116 9 57 13 105 8 110 -5 5 -20
-1 -36 -13 -35 -28 -53 -19 -78 38 -37 84 -28 240 28 478 28 123 29 132 4 140
-24 8 -55 -15 -65 -46 -8 -24 -32 -24 -72 0 -35 22 -51 57 -34 74 15 15 14 37
-1 37 -7 0 -46 -27 -86 -60 -126 -103 -193 -101 -294 9 -52 56 -128 183 -128
215 0 18 38 29 215 62 115 22 215 44 268 60 13 4 22 -6 38 -43 30 -72 71 -93
111 -56 24 21 23 69 -2 135 -11 29 -20 58 -20 65 0 16 62 54 85 51 11 -2 51
-43 95 -101z m1805 -442 c50 -8 214 -19 365 -25 392 -15 572 -27 673 -46 113
-21 127 -34 127 -120 0 -39 -5 -66 -12 -71 -29 -17 -182 -63 -197 -59 -78 23
-353 49 -801 76 -382 23 -430 28 -437 45 -5 14 54 135 85 173 16 20 59 38 97
41 6 0 51 -6 100 -14z m0 -320 c703 -45 941 -69 977 -102 15 -13 17 -27 11
-89 l-6 -73 57 -62 c31 -34 55 -66 53 -73 -2 -6 -14 -16 -27 -23 -31 -16 -43
-48 -34 -98 10 -61 39 -110 80 -134 l37 -22 -7 -64 c-17 -168 -90 -372 -257
-716 -129 -266 -104 -236 -563 -694 -370 -369 -621 -573 -941 -764 -169 -101
-411 -221 -558 -275 l-97 -36 -40 20 c-60 30 -149 48 -310 60 -80 6 -152 13
-160 15 -8 2 -27 6 -41 9 -16 4 -35 20 -47 40 -24 40 -67 56 -154 56 -41 0
-59 -4 -66 -15 -7 -13 -14 -13 -41 -4 -21 7 -62 10 -111 6 -62 -5 -79 -3 -84
8 -7 19 -98 45 -156 45 -71 0 -136 -24 -243 -90 -125 -77 -176 -103 -191 -97
-7 3 -19 26 -26 51 -24 86 -84 144 -179 172 -75 22 -226 21 -466 -1 -251 -23
-400 -14 -453 28 -11 9 -14 71 -13 311 1 166 1 388 1 493 0 188 0 194 26 244
14 28 41 110 59 181 19 72 42 139 52 151 70 78 335 91 423 19 30 -25 19 -60
-41 -129 -70 -80 -92 -145 -92 -268 0 -153 45 -291 147 -443 53 -80 165 -191
222 -220 23 -12 66 -46 97 -76 60 -58 140 -96 202 -96 23 0 42 -8 59 -25 21
-21 34 -25 88 -25 44 0 90 -9 151 -30 120 -41 260 -68 416 -81 278 -23 610 34
860 147 53 25 83 33 103 29 33 -8 88 29 88 58 0 11 -12 45 -26 77 -14 32 -24
68 -22 81 3 22 8 24 73 26 257 9 459 35 581 77 133 45 239 116 314 210 43 54
44 55 109 61 90 9 123 20 156 55 l28 29 -13 81 c-11 70 -11 83 3 98 8 9 17 26
19 37 3 19 10 20 101 16 105 -4 127 4 127 45 0 31 -27 44 -92 44 -69 0 -99 16
-116 62 -31 80 14 123 199 188 113 40 189 86 189 115 0 8 8 16 18 19 17 6 153
25 179 26 20 0 43 30 43 55 0 45 -34 56 -135 45 -50 -6 -193 -9 -319 -8 -191
3 -230 5 -236 18 -5 8 -13 48 -19 88 -14 91 -62 197 -127 278 -27 34 -106 123
-175 197 -146 156 -205 234 -253 338 -55 117 -55 113 6 152 29 18 95 71 147
117 l94 82 51 -6 c28 -3 159 -13 291 -21z m-1047 -89 c23 -22 24 -31 24 -127
-1 -129 -18 -213 -77 -404 -74 -234 -85 -282 -85 -377 0 -83 -1 -87 -27 -106
-69 -49 -198 -102 -448 -184 -326 -107 -437 -158 -516 -237 -91 -92 -89 -139
11 -184 37 -17 71 -22 201 -25 l156 -4 22 36 c74 119 267 216 502 250 191 28
570 13 642 -26 18 -9 18 -11 -5 -35 -47 -50 -194 -110 -382 -157 -182 -46
-270 -80 -352 -137 -52 -35 -50 -10 -20 -219 18 -125 25 -635 9 -650 -16 -17
-190 -82 -280 -105 -171 -45 -299 -58 -503 -52 -190 6 -280 19 -435 67 -108
33 -115 40 -115 108 0 71 21 117 102 229 l62 86 91 -7 c197 -15 365 -52 492
-111 83 -38 77 -41 106 50 25 77 47 218 54 347 l6 116 -39 20 c-74 37 -151 49
-419 62 -221 11 -299 22 -362 50 -40 18 -43 21 -43 59 0 49 12 59 131 102 46
17 92 38 102 46 36 33 7 113 -41 113 -26 0 -143 -41 -226 -79 -38 -17 -79 -31
-91 -31 -20 0 -418 87 -504 110 -20 5 -48 21 -60 34 -20 21 -22 32 -17 68 8
56 50 145 84 181 64 68 155 88 281 63 45 -9 164 -45 265 -80 101 -36 218 -70
260 -77 70 -12 79 -11 123 7 43 18 59 34 98 98 7 11 34 20 80 27 39 6 88 20
110 30 22 11 69 24 104 30 36 5 99 24 141 41 105 43 166 58 232 58 56 0 59 1
82 38 54 82 61 131 61 457 0 286 1 302 22 347 26 57 46 68 131 73 38 2 90 13
117 24 61 25 110 21 143 -13z m2206 -32 c3 -9 6 -51 6 -94 0 -60 -4 -83 -17
-95 -15 -16 -19 -14 -61 28 l-45 45 9 53 c7 42 14 56 34 66 34 17 67 16 74 -3z
m-4787 -914 c3 -10 16 -26 29 -35 27 -17 24 -32 -13 -82 -29 -40 -42 -41 -93
-7 -33 22 -40 32 -40 60 0 30 5 36 48 58 58 31 63 31 69 6z m-800 -255 c25
-18 41 -62 45 -125 l2 -45 -50 0 c-74 1 -104 23 -104 79 0 24 5 57 11 75 9 26
16 31 43 31 17 0 41 -7 53 -15z m328 -45 c0 -62 -18 -74 -44 -29 -12 22 -13
31 -1 58 8 20 19 31 29 29 12 -3 16 -16 16 -58z m43 -198 c10 -7 7 -30 -14
-113 -15 -57 -37 -128 -50 -157 -20 -45 -27 -53 -46 -50 -23 3 -23 5 -24 143
0 78 -4 146 -8 153 -4 7 -4 17 -1 22 7 12 124 13 143 2z m982 -102 c129 -29
239 -56 244 -60 4 -5 -1 -33 -13 -64 -27 -73 -41 -227 -41 -453 0 -192 -12
-284 -49 -385 -12 -31 -29 -59 -38 -62 -22 -9 -93 27 -131 67 -32 32 -32 35
-57 236 -47 374 -79 476 -201 626 -44 54 -45 55 -33 97 6 24 13 47 16 51 7 12
38 7 303 -53z m2923 -179 l44 -21 6 -98 c3 -53 3 -100 -1 -104 -4 -4 -42 -8
-86 -10 l-78 -3 -12 45 c-7 25 -22 61 -34 80 -21 34 -28 91 -15 125 5 15 16
17 69 12 34 -2 83 -14 107 -26z m-4049 -547 c19 -50 -5 -119 -32 -92 -23 23
-12 108 13 108 7 0 16 -7 19 -16z m9 -271 c5 -40 5 -121 0 -180 -7 -89 -11
-108 -25 -111 -38 -7 -78 115 -78 239 0 91 23 132 69 127 24 -3 26 -7 34 -75z
m2023 -454 c9 -16 -11 -31 -41 -31 -27 0 -48 19 -39 34 8 12 72 10 80 -3z"/>
<path d="M11920 7450 c-12 -8 -11 -10 7 -10 12 0 25 5 28 10 8 13 -15 13 -35
0z"/>
<path d="M12095 7154 c-9 -151 -1 -177 54 -182 l34 -3 -7 86 c-6 88 -35 188
-60 213 -12 12 -15 -4 -21 -114z"/>
<path d="M10335 7146 c-18 -13 -18 -14 8 -45 15 -18 33 -54 41 -81 8 -26 19
-58 26 -69 12 -24 35 -27 47 -7 4 8 25 24 46 36 20 12 37 25 37 30 0 10 -138
140 -149 140 -5 0 -15 2 -23 5 -7 3 -22 -1 -33 -9z"/>
<path d="M12116 5968 c-21 -12 -21 -48 0 -48 24 0 54 19 54 34 0 18 -32 26
-54 14z"/>
<path d="M12253 5194 c-3 -8 -1 -25 5 -37 10 -20 11 -18 11 16 1 39 -5 48 -16
21z"/>
<path d="M10368 3354 c-20 -14 -62 -36 -95 -49 -40 -17 -58 -29 -58 -42 0 -24
23 -20 115 23 81 38 110 59 110 81 0 20 -31 15 -72 -13z"/>
<path d="M11860 8110 c-13 -9 -13 -10 0 -9 8 0 24 4 35 9 l20 9 -20 0 c-11 0
-27 -4 -35 -9z"/>
<path d="M11050 8035 c-58 -19 -135 -44 -171 -55 -68 -21 -89 -41 -68 -66 17
-21 33 -18 205 37 169 53 196 68 178 97 -17 26 -30 25 -144 -13z"/>
<path d="M350 4895 c0 -30 72 -176 142 -289 75 -121 160 -234 382 -510 109
-137 232 -296 273 -354 87 -124 173 -274 173 -301 0 -11 -12 -23 -31 -31 -17
-7 -55 -41 -86 -76 -64 -72 -96 -89 -156 -80 l-42 6 25 -21 c38 -33 107 -64
200 -93 262 -80 607 -73 750 15 33 21 34 22 15 36 -33 25 -102 52 -265 105
-85 28 -186 65 -225 83 -38 18 -78 35 -87 39 -10 3 -24 21 -32 41 -56 133
-202 346 -451 655 -300 373 -394 506 -492 705 -39 78 -52 95 -70 95 -18 0 -23
-6 -23 -25z"/>
<path d="M12221 3621 c-28 -18 -4 -61 46 -83 39 -17 60 -20 127 -15 143 9 146
26 15 77 -78 30 -159 39 -188 21z"/>
<path d="M2200 3290 l0 -40 40 0 40 0 0 40 0 40 -40 0 -40 0 0 -40z"/>
<path d="M12687 3285 c-20 -43 -22 -75 -4 -75 18 0 51 74 44 94 -10 25 -22 19
-40 -19z"/>
<path d="M11788 3274 c-17 -17 -7 -54 19 -71 37 -24 150 -24 187 0 35 23 33
31 -11 53 -39 19 -182 32 -195 18z"/>
<path d="M402 3188 c-18 -23 -24 -82 -10 -100 36 -45 250 -159 398 -211 300
-106 733 -152 1194 -128 299 15 513 36 532 52 18 15 18 43 0 59 -12 9 -50 8
-173 -4 -751 -74 -1327 -15 -1708 176 -109 55 -165 95 -165 118 0 38 -46 64
-68 38z"/>
<path d="M11361 3071 c-29 -10 -57 -25 -62 -32 -16 -26 -9 -58 16 -75 22 -15
30 -15 92 1 37 9 74 22 81 27 18 15 15 62 -6 81 -24 22 -54 21 -121 -2z"/>
<path d="M4008 3025 c-13 -29 1 -51 41 -67 58 -22 819 -210 981 -242 324 -65
701 -104 735 -76 19 16 19 54 0 70 -8 7 -68 16 -137 21 -347 26 -639 82 -1259
244 -158 41 -301 75 -318 75 -24 0 -34 -6 -43 -25z"/>
<path d="M12196 2970 c-57 -58 -68 -90 -31 -90 25 0 127 105 123 126 -6 34
-33 24 -92 -36z"/>
<path d="M4 2794 c-5 -29 -2 -40 14 -56 20 -21 31 -20 64 4 36 26 311 -24 804
-146 453 -112 709 -161 950 -180 82 -7 118 8 98 41 -9 14 -34 20 -125 30 -265
27 -419 57 -954 187 -368 89 -556 128 -717 145 -132 15 -126 16 -134 -25z"/>
<path d="M6230 2756 c0 -56 3 -66 20 -71 11 -3 29 -4 39 0 23 7 71 85 71 114
0 19 -6 21 -65 21 l-65 0 0 -64z"/>
<path d="M11829 2744 c-22 -27 2 -47 72 -61 91 -17 128 -16 136 3 11 29 -12
48 -73 61 -81 17 -119 16 -135 -3z"/>
<path d="M10683 2546 c-23 -7 -62 -25 -86 -39 -47 -28 -167 -150 -167 -170 0
-7 26 -17 63 -24 34 -7 134 -35 222 -63 250 -81 339 -94 442 -68 45 11 122 74
148 121 8 15 29 19 130 23 154 7 160 8 175 43 11 27 5 56 -17 81 -3 3 -80 7
-171 10 -157 6 -177 9 -327 49 -182 49 -333 63 -412 37z"/>
<path d="M11932 2418 c-7 -7 -12 -18 -12 -25 0 -29 50 -43 216 -63 241 -28
325 -53 410 -121 45 -36 78 -35 82 2 5 46 -96 117 -218 153 -45 13 -406 66
-453 66 -7 0 -18 -5 -25 -12z"/>
<path d="M7828 2313 c-20 -22 -23 -55 -8 -83 5 -10 39 -28 77 -41 76 -25 105
-51 129 -117 35 -99 73 -171 98 -187 25 -17 28 -16 75 4 46 19 101 31 373 80
121 22 213 59 254 102 23 24 26 32 14 39 -18 11 -145 34 -335 60 -229 32 -380
69 -487 120 -86 41 -166 50 -190 23z"/>
<path d="M196 2244 c-22 -22 -20 -41 7 -58 20 -13 511 -134 748 -185 306 -65
594 -91 820 -72 168 13 335 43 389 69 39 19 50 51 25 72 -13 11 -30 9 -103 -8
-175 -42 -222 -47 -472 -47 -326 0 -443 18 -1056 165 -183 44 -335 80 -338 80
-2 0 -12 -7 -20 -16z"/>
<path d="M6472 2218 c-19 -19 -14 -46 11 -62 39 -26 190 -39 367 -33 91 4 193
3 228 -2 l63 -7 102 -106 c56 -58 123 -118 149 -133 87 -49 238 -75 238 -40 0
27 -41 137 -66 181 -28 47 -97 115 -140 137 -84 43 -128 48 -474 53 -184 3
-357 9 -383 15 -63 12 -81 11 -95 -3z"/>
<path d="M2595 2145 c-60 -21 -81 -59 -49 -86 13 -10 23 -10 62 4 59 21 131
22 160 1 31 -21 54 -72 91 -198 37 -128 58 -170 103 -213 33 -32 94 -63 122
-63 23 0 39 36 26 60 -6 11 -16 20 -23 20 -7 0 -29 11 -49 25 -41 28 -77 96
-103 194 -39 152 -85 229 -152 257 -42 18 -137 17 -188 -1z"/>
<path d="M9047 2143 c-11 -10 -8 -63 3 -63 6 0 10 16 10 35 0 36 -2 40 -13 28z"/>
<path d="M8545 1775 c-32 -31 -32 -59 0 -91 l25 -25 205 3 c228 3 239 7 237
70 -2 63 -19 68 -244 68 -198 0 -199 0 -223 -25z"/>
<path d="M9515 1730 c-8 -13 15 -13 35 0 12 8 11 10 -7 10 -12 0 -25 -4 -28
-10z"/>
<path d="M7800 1423 c-56 -10 -234 -57 -375 -99 -100 -30 -155 -52 -164 -65
-11 -16 -26 -19 -88 -19 -88 0 -132 -16 -166 -61 -28 -38 -57 -116 -57 -155
l0 -25 193 1 c105 1 199 -1 207 -4 8 -3 60 -10 114 -15 88 -9 102 -13 128 -38
39 -36 56 -71 68 -134 15 -78 -17 -125 -109 -160 -94 -35 -121 -51 -136 -79
-12 -24 -12 -30 -1 -39 23 -20 75 -31 211 -46 72 -8 146 -19 165 -25 19 -5 38
-10 41 -10 8 0 19 178 12 196 -3 8 -18 21 -33 29 -27 14 -28 18 -32 107 -5
109 -28 172 -86 231 -53 55 -99 76 -184 83 -40 3 -97 10 -125 15 l-53 10 0 43
c0 24 6 48 13 53 28 23 413 128 511 141 61 7 85 25 73 56 -6 16 -63 20 -127 9z"/>
<path d="M10945 1393 c-27 -2 -140 -15 -250 -30 -216 -28 -379 -33 -755 -23
-189 5 -208 7 -249 28 -60 32 -93 24 -89 -21 3 -28 10 -36 63 -62 60 -30 60
-30 245 -31 l185 -1 91 -36 c241 -94 527 -111 779 -47 143 36 347 151 319 179
-24 25 -230 52 -339 44z"/>
<path d="M2060 1019 c-17 -30 -7 -45 47 -72 147 -75 323 -91 656 -63 104 9
229 16 278 16 78 0 90 2 99 20 7 14 7 26 1 39 -18 33 -109 33 -516 1 -201 -16
-337 0 -460 55 -70 30 -91 31 -105 4z"/>
<path d="M3371 977 c-19 -7 -36 -16 -37 -22 -5 -15 134 -92 187 -104 25 -6 55
-8 68 -4 19 5 21 10 16 32 -4 14 -14 34 -23 45 -43 47 -150 75 -211 53z"/>
<path d="M8902 611 c-23 -14 -10 -55 22 -70 87 -41 132 -46 416 -43 296 3 353
-3 437 -44 59 -28 86 -61 119 -143 23 -55 24 -56 61 -54 21 1 90 2 153 3 142
2 227 -18 485 -115 214 -80 281 -101 383 -122 42 -8 87 -17 99 -20 15 -4 26 3
39 22 18 27 18 28 -5 46 -13 11 -38 19 -56 19 -56 0 -212 45 -410 118 -319
118 -403 137 -573 130 l-95 -3 -24 45 c-30 57 -87 116 -136 141 -89 46 -144
52 -467 53 -291 1 -308 2 -365 24 -67 25 -65 25 -83 13z"/>
</g>
</svg>
